HIERARCHY
ROOT Hips
{
  OFFSET -8.072 29.723 -234.695
  CHANNELS 6 Xposition Yposition Zposition Zrotation Xrotation Yrotation
  JOINT LeftUpLeg
  {
    OFFSET 7.487 -6.326 3.978
    CHANNELS 6 Xposition Yposition Zposition Zrotation Xrotation Yrotation
    JOINT LeftLeg
    {
      OFFSET 0.000 -52.178 0.000
      CHANNELS 6 Xposition Yposition Zposition Zrotation Xrotation Yrotation
      JOINT LeftFoot
      {
        OFFSET -0.000 -41.577 -0.000
        CHANNELS 6 Xposition Yposition Zposition Zrotation Xrotation Yrotation
        End Site
        {
          OFFSET 0.000 -8.307 4.796
        }
      }
    }
  }
  JOINT RightUpLeg
  {
    OFFSET -7.043 -6.977 4.010
    CHANNELS 6 Xposition Yposition Zposition Zrotation Xrotation Yrotation
    JOINT RightLeg
    {
      OFFSET 0.000 -50.161 0.000
      CHANNELS 6 Xposition Yposition Zposition Zrotation Xrotation Yrotation
      JOINT RightFoot
      {
        OFFSET 0.000 -43.301 -0.000
        CHANNELS 6 Xposition Yposition Zposition Zrotation Xrotation Yrotation
        End Site
        {
          OFFSET -0.000 -8.095 4.674
        }
      }
    }
  }
  JOINT Spine
  {
    OFFSET 0.000 5.080 -5.080
    CHANNELS 6 Xposition Yposition Zposition Zrotation Xrotation Yrotation
    JOINT LeftShoulder
    {
      OFFSET -0.000 36.646 0.000
      CHANNELS 6 Xposition Yposition Zposition Zrotation Xrotation Yrotation
      JOINT LeftArm
      {
        OFFSET 21.274 0.000 -0.000
        CHANNELS 6 Xposition Yposition Zposition Zrotation Xrotation Yrotation
        JOINT LeftForeArm
        {
          OFFSET 24.311 0.000 0.000
          CHANNELS 6 Xposition Yposition Zposition Zrotation Xrotation Yrotation
          JOINT LeftHand
          {
            OFFSET 25.824 -0.000 -0.000
            CHANNELS 6 Xposition Yposition Zposition Zrotation Xrotation Yrotation
            JOINT LeftHandThumb1
            {
            OFFSET 4.970 -0.620 3.390
            CHANNELS 6 Xposition Yposition Zposition Zrotation Xrotation Yrotation
              JOINT LeftHandThumb2
              {
              OFFSET 2.150 -0.000 0.000
              CHANNELS 6 Xposition Yposition Zposition Zrotation Xrotation Yrotation
                JOINT LeftHandThumb3
                {
                OFFSET 2.200 -0.000 0.000
                CHANNELS 6 Xposition Yposition Zposition Zrotation Xrotation Yrotation
                  JOINT LeftHandThumb4
                  {
                  OFFSET 1.700 -0.000 0.000
                  CHANNELS 6 Xposition Yposition Zposition Zrotation Xrotation Yrotation
                  }
                }
              }
            }
            JOINT LeftHandIndex1
            {
            OFFSET 8.730 0.680 2.070
            CHANNELS 6 Xposition Yposition Zposition Zrotation Xrotation Yrotation
              JOINT LeftHandIndex2
              {
              OFFSET 2.670 -0.000 0.000
              CHANNELS 6 Xposition Yposition Zposition Zrotation Xrotation Yrotation
                JOINT LeftHandIndex3
                {
                OFFSET 2.130 -0.000 0.000
                CHANNELS 6 Xposition Yposition Zposition Zrotation Xrotation Yrotation
                  JOINT LeftHandIndex4
                  {
                  OFFSET 1.800 -0.000 0.000
                  CHANNELS 6 Xposition Yposition Zposition Zrotation Xrotation Yrotation
                  }
                }
              }
            }
            JOINT LeftHandMiddle1
            {
            OFFSET 9.220 0.670 0.550
            CHANNELS 6 Xposition Yposition Zposition Zrotation Xrotation Yrotation
              JOINT LeftHandMiddle2
              {
              OFFSET 2.660 -0.000 0.000
              CHANNELS 6 Xposition Yposition Zposition Zrotation Xrotation Yrotation
                JOINT LeftHandMiddle3
                {
                OFFSET 2.280 -0.000 0.000
                CHANNELS 6 Xposition Yposition Zposition Zrotation Xrotation Yrotation
                  JOINT LeftHandMiddle4
                  {
                  OFFSET 1.500 -0.000 0.000
                  CHANNELS 6 Xposition Yposition Zposition Zrotation Xrotation Yrotation
                  }
                }
              }
            }
            JOINT LeftHandRing1
            {
            OFFSET 9.250 0.670 -1.130
            CHANNELS 6 Xposition Yposition Zposition Zrotation Xrotation Yrotation
              JOINT LeftHandRing2
              {
              OFFSET 2.470 -0.000 0.000
              CHANNELS 6 Xposition Yposition Zposition Zrotation Xrotation Yrotation
                JOINT LeftHandRing3
                {
                OFFSET 2.210 -0.000 0.000
                CHANNELS 6 Xposition Yposition Zposition Zrotation Xrotation Yrotation
                  JOINT LeftHandRing4
                  {
                  OFFSET 1.800 -0.000 0.000
                  CHANNELS 6 Xposition Yposition Zposition Zrotation Xrotation Yrotation
                  }
                }
              }
            }
            JOINT LeftHandPinky1
            {
            OFFSET 9.350 0.660 -2.720
            CHANNELS 6 Xposition Yposition Zposition Zrotation Xrotation Yrotation
              JOINT LeftHandPinky2
              {
              OFFSET 1.630 -0.000 0.000
              CHANNELS 6 Xposition Yposition Zposition Zrotation Xrotation Yrotation
                JOINT LeftHandPinky3
                {
                OFFSET 1.710 -0.000 0.000
                CHANNELS 6 Xposition Yposition Zposition Zrotation Xrotation Yrotation
                  JOINT LeftHandPinky4
                  {
                  OFFSET 1.800 -0.000 0.000
                  CHANNELS 6 Xposition Yposition Zposition Zrotation Xrotation Yrotation
                  }
                }
              }
            }
          }
        }
      }
    }
    JOINT RightShoulder
    {
      OFFSET -0.000 36.646 0.000
      CHANNELS 6 Xposition Yposition Zposition Zrotation Xrotation Yrotation
      JOINT RightArm
      {
        OFFSET -21.749 0.000 -0.000
        CHANNELS 6 Xposition Yposition Zposition Zrotation Xrotation Yrotation
        JOINT RightForeArm
        {
          OFFSET -22.942 0.000 0.000
          CHANNELS 6 Xposition Yposition Zposition Zrotation Xrotation Yrotation
          JOINT RightHand
          {
            OFFSET -26.965 0.000 -0.000
            CHANNELS 6 Xposition Yposition Zposition Zrotation Xrotation Yrotation
            JOINT RightHandThumb1
            {
            OFFSET -4.970 -0.620 3.390
            CHANNELS 6 Xposition Yposition Zposition Zrotation Xrotation Yrotation
              JOINT RightHandThumb2
              {
              OFFSET -2.150 0.000 0.000
              CHANNELS 6 Xposition Yposition Zposition Zrotation Xrotation Yrotation
                JOINT RightHandThumb3
                {
                OFFSET -2.200 0.000 0.000
                CHANNELS 6 Xposition Yposition Zposition Zrotation Xrotation Yrotation
                  JOINT RightHandThumb4
                  {
                  OFFSET -1.700 0.000 0.000
                  CHANNELS 6 Xposition Yposition Zposition Zrotation Xrotation Yrotation
                  }
                }
              }
            }
            JOINT RightHandIndex1
            {
            OFFSET -8.730 0.680 2.070
            CHANNELS 6 Xposition Yposition Zposition Zrotation Xrotation Yrotation
              JOINT RightHandIndex2
              {
              OFFSET -2.670 0.000 0.000
              CHANNELS 6 Xposition Yposition Zposition Zrotation Xrotation Yrotation
                JOINT RightHandIndex3
                {
                OFFSET -2.130 0.000 0.000
                CHANNELS 6 Xposition Yposition Zposition Zrotation Xrotation Yrotation
                  JOINT RightHandIndex4
                  {
                  OFFSET -1.800 0.000 0.000
                  CHANNELS 6 Xposition Yposition Zposition Zrotation Xrotation Yrotation
                  }
                }
              }
            }
            JOINT RightHandMiddle1
            {
            OFFSET -9.220 0.670 0.550
            CHANNELS 6 Xposition Yposition Zposition Zrotation Xrotation Yrotation
              JOINT RightHandMiddle2
              {
              OFFSET -2.660 0.000 0.000
              CHANNELS 6 Xposition Yposition Zposition Zrotation Xrotation Yrotation
                JOINT RightHandMiddle3
                {
                OFFSET -2.280 0.000 0.000
                CHANNELS 6 Xposition Yposition Zposition Zrotation Xrotation Yrotation
                  JOINT RightHandMiddle4
                  {
                  OFFSET -1.500 0.000 0.000
                  CHANNELS 6 Xposition Yposition Zposition Zrotation Xrotation Yrotation
                  }
                }
              }
            }
            JOINT RightHandRing1
            {
            OFFSET -9.250 0.670 -1.130
            CHANNELS 6 Xposition Yposition Zposition Zrotation Xrotation Yrotation
              JOINT RightHandRing2
              {
              OFFSET -2.470 0.000 0.000
              CHANNELS 6 Xposition Yposition Zposition Zrotation Xrotation Yrotation
                JOINT RightHandRing3
                {
                OFFSET -2.210 0.000 0.000
                CHANNELS 6 Xposition Yposition Zposition Zrotation Xrotation Yrotation
                  JOINT RightHandRing4
                  {
                  OFFSET -1.800 0.000 0.000
                  CHANNELS 6 Xposition Yposition Zposition Zrotation Xrotation Yrotation
                  }
                }
              }
            }
            JOINT RightHandPinky1
            {
            OFFSET -9.350 0.660 -2.720
            CHANNELS 6 Xposition Yposition Zposition Zrotation Xrotation Yrotation
              JOINT RightHandPinky2
              {
              OFFSET -1.630 0.000 0.000
              CHANNELS 6 Xposition Yposition Zposition Zrotation Xrotation Yrotation
                JOINT RightHandPinky3
                {
                OFFSET -1.710 0.000 0.000
                CHANNELS 6 Xposition Yposition Zposition Zrotation Xrotation Yrotation
                  JOINT RightHandPinky4
                  {
                  OFFSET -1.800 0.000 0.000
                  CHANNELS 6 Xposition Yposition Zposition Zrotation Xrotation Yrotation
                  }
                }
              }
            }
          }
        }
      }
    }
    JOINT Neck
    {
      OFFSET -0.000 36.646 0.000
      CHANNELS 6 Xposition Yposition Zposition Zrotation Xrotation Yrotation
      JOINT Head
      {
        OFFSET -0.000 15.888 -0.000
        CHANNELS 6 Xposition Yposition Zposition Zrotation Xrotation Yrotation
        End Site
        {
          OFFSET -0.000 0.064 -0.000
        }
      }
    }
  }
}
MOTION
Frames:	5
Frame Time:	0.0333333
-27.5486 30.3498 -234.959 6.85869 22.522 -13.8212 7.53224 -7.03492 3.49803 10.3599 -28.6705 2.47307 -5.96046e-06 -52.4942 4.76837e-05 -4.65079 24.9481 9.41638e-07 5.96046e-06 -43.3406 -3.57628e-05 10.5243 -18.6194 8.20105 -7.42001 -7.4923 3.42236 -6.6106 -24.0413 -1.99139 5.96046e-06 -51.2021 -4.76837e-05 2.28597 17.9093 -1.7945e-06 0 -42.5697 0 -15.3921 -15.2985 -12.525 -5.96046e-06 5.14355 -5.14355 -0.13032 -19.6493 -1.19832 5.96046e-06 36.6466 2.38419e-05 -37.7037 1.02453e-05 0.994894 22.0212 8.00937e-06 2.38419e-05 -34.0897 35.0854 -1.4393 24.1136 -5.96046e-05 0 -0.000235882 -3.56617e-07 -94.0827 23.5567 3.57628e-05 5.96046e-06 11.1167 -1.07985 -14.9909 0.0062 0.0497 0.0339 -45 0 0 0 0.0215 0 0 -45 0 0 0.022 0 0 -45 0 0 0.017 0 0 0 0 -0.0068 0.0873 0.0207 -45 0 0 0 0.0267 0 -80 0 0 0 0.0213 0 -90 0 0 0 0.018 0 0 0 0 -0.0067 0.0922 0.0055 -45 0 0 0 0.0266 0 -80 0 0 0 0.0228 0 -90 0 0 0 0.015 0 0 0 0 -0.0067 0.0925 -0.0113 -45 0 0 0 0.0247 0 -80 0 0 0 0.0221 0 -90 0 0 0 0.018 0 0 0 0 -0.0066 0.0935 -0.0272 -45 0 0 0 0.0163 0 -80 0 0 0 0.0171 0 -90 0 0 0 0.018 0 0 0 0 5.96046e-06 36.6466 2.38419e-05 33.3097 -3.4151e-06 -1.00055 -21.897 1.19209e-05 0 44.9213 28.9707 -6.80704 -21.0478 -1.19209e-05 2.38419e-05 -0.000111968 1.02453e-05 87.8188 -26.381 1.63913e-05 5.96046e-06 4.20999 -0.40038 -1.41669 -0.0062 0.0497 0.0339 45 0 0 0 0.0215 0 0 -45 0 0 0.022 0 0 -45 0 0 0.017 0 0 0 0 0.0068 0.0873 0.0207 45 0 0 0 0.0267 0 80 0 0 0 0.0213 0 90 0 0 0 0.018 0 0 0 0 0.0067 0.0922 0.0055 45 0 0 0 0.0266 0 80 0 0 0 0.0228 0 90 0 0 0 0.015 0 0 0 0 0.0067 0.0925 -0.0113 45 0 0 0 0.0247 0 80 0 0 0 0.0221 0 90 0 0 0 0.018 0 0 0 0 0.0066 0.0935 -0.0272 45 0 0 0 0.0163 0 80 0 0 0 0.0171 0 90 0 0 0 0.018 0 0 0 0 5.96046e-06 36.6466 2.38419e-05 2.22034 13.4213 -0.5156 -5.96046e-06 15.962 -4.76837e-05 8.96462e-06 -1.02453e-05 8.53774e-07 
-24.3283 30.5155 -235.547 7.42097 23.6948 -12.4541 7.46973 -6.97717 3.77958 8.39509 -29.2339 1.62053 -5.96046e-06 -52.4373 9.53674e-05 -5.51998 23.5339 0 -1.78814e-05 -43.006 -3.57628e-05 11.4007 -17.6821 9.01344 -7.41082 -7.39645 3.41539 -7.01799 -24.7707 -2.87359 5.96046e-06 -51.1403 4.76837e-05 0.315876 16.3762 3.5595e-06 0 -42.2587 0 -10.4092 -15.7933 -8.89023 0 5.14735 -5.14739 -0.322928 -20.9155 -1.2627 5.96046e-06 36.6466 0 -37.6705 1.70755e-05 0.550097 21.8915 6.33299e-06 4.76837e-05 -34.9818 35.2796 -0.349548 24.0583 0 -4.76837e-05 -8.20329e-08 -1.91151e-06 -94.9147 24.8856 -3.57628e-05 1.19209e-05 9.48097 -0.648903 -13.4469 0.0062 0.0497 0.0339 -45 0 0 0 0.0215 0 0 -45 0 0 0.022 0 0 -45 0 0 0.017 0 0 0 0 -0.0068 0.0873 0.0207 -45 0 0 0 0.0267 0 -80 0 0 0 0.0213 0 -90 0 0 0 0.018 0 0 0 0 -0.0067 0.0922 0.0055 -45 0 0 0 0.0266 0 -80 0 0 0 0.0228 0 -90 0 0 0 0.015 0 0 0 0 -0.0067 0.0925 -0.0113 -45 0 0 0 0.0247 0 -80 0 0 0 0.0221 0 -90 0 0 0 0.018 0 0 0 0 -0.0066 0.0935 -0.0272 -45 0 0 0 0.0163 0 -80 0 0 0 0.0171 0 -90 0 0 0 0.018 0 0 0 0 5.96046e-06 36.6466 0 33.2309 -2.13443e-06 -0.551298 -21.8441 1.19209e-05 0 44.4042 27.928 -6.93297 -20.6975 -1.93715e-05 0 -0.000114504 1.19528e-05 86.5909 -26.0882 1.63913e-05 8.9407e-06 2.30928 -0.244046 -3.8036 -0.0062 0.0497 0.0339 45 0 0 0 0.0215 0 0 -45 0 0 0.022 0 0 -45 0 0 0.017 0 0 0 0 0.0068 0.0873 0.0207 45 0 0 0 0.0267 0 80 0 0 0 0.0213 0 90 0 0 0 0.018 0 0 0 0 0.0067 0.0922 0.0055 45 0 0 0 0.0266 0 80 0 0 0 0.0228 0 90 0 0 0 0.015 0 0 0 0 0.0067 0.0925 -0.0113 45 0 0 0 0.0247 0 80 0 0 0 0.0221 0 90 0 0 0 0.018 0 0 0 0 0.0066 0.0935 -0.0272 45 0 0 0 0.0163 0 80 0 0 0 0.0171 0 90 0 0 0 0.018 0 0 0 0 5.96046e-06 36.6466 0 2.63777 13.023 -0.5948 -5.96046e-06 16.1757 0 6.18986e-06 -9.39151e-06 1.70755e-06 
-22.0549 30.6681 -235.909 7.79058 24.4747 -11.4424 7.47995 -6.98085 3.9079 6.56308 -29.9513 1.11099 5.96046e-06 -52.3993 0 -5.3986 22.9661 0 5.96046e-06 -42.7742 -2.38419e-05 11.4946 -17.16 9.1596 -7.44207 -7.32361 3.45571 -6.5681 -25.1706 -2.92608 -5.96046e-06 -50.9697 4.76837e-05 -0.950039 15.3579 0 1.19209e-05 -42.2975 0 -1.93749 -16.7495 -2.93251 5.96046e-06 5.14137 -5.1414 -0.424276 -21.6993 -1.30222 5.96046e-06 36.6466 2.38419e-05 -37.4823 1.53679e-05 0.505729 21.8634 2.98023e-06 0 -35.4622 36.5386 0.308915 23.8909 -2.38419e-05 -1.19209e-05 1.30538e-05 -1.32609e-05 -95.238 26.1408 1.19209e-05 -5.96046e-06 10.262 -0.528221 -13.2801 0.0062 0.0497 0.0339 -45 0 0 0 0.0215 0 0 -45 0 0 0.022 0 0 -45 0 0 0.017 0 0 0 0 -0.0068 0.0873 0.0207 -45 0 0 0 0.0267 0 -80 0 0 0 0.0213 0 -90 0 0 0 0.018 0 0 0 0 -0.0067 0.0922 0.0055 -45 0 0 0 0.0266 0 -80 0 0 0 0.0228 0 -90 0 0 0 0.015 0 0 0 0 -0.0067 0.0925 -0.0113 -45 0 0 0 0.0247 0 -80 0 0 0 0.0221 0 -90 0 0 0 0.018 0 0 0 0 -0.0066 0.0935 -0.0272 -45 0 0 0 0.0163 0 -80 0 0 0 0.0171 0 -90 0 0 0 0.018 0 0 0 0 5.96046e-06 36.6466 2.38419e-05 32.7821 -4.26887e-07 -0.503581 -21.957 -5.96046e-06 0 44.1529 28.6189 -6.59338 -20.5003 2.98023e-06 -4.76837e-05 -2.52153e-05 1.53679e-05 86.1942 -26.5681 -2.98023e-06 -2.98023e-06 1.37109 -0.15044 -3.70438 -0.0062 0.0497 0.0339 45 0 0 0 0.0215 0 0 -45 0 0 0.022 0 0 -45 0 0 0.017 0 0 0 0 0.0068 0.0873 0.0207 45 0 0 0 0.0267 0 80 0 0 0 0.0213 0 90 0 0 0 0.018 0 0 0 0 0.0067 0.0922 0.0055 45 0 0 0 0.0266 0 80 0 0 0 0.0228 0 90 0 0 0 0.015 0 0 0 0 0.0067 0.0925 -0.0113 45 0 0 0 0.0247 0 80 0 0 0 0.0221 0 90 0 0 0 0.018 0 0 0 0 0.0066 0.0935 -0.0272 45 0 0 0 0.0163 0 80 0 0 0 0.0171 0 90 0 0 0 0.018 0 0 0 0 5.96046e-06 36.6466 2.38419e-05 2.18684 12.8217 -0.485523 1.19209e-05 16.2343 7.15256e-05 1.00318e-05 -1.10991e-05 -8.53773e-07 
-19.812 30.8433 -236.29 8.22608 25.2028 -10.631 7.38523 -6.95896 4.02751 5.6659 -30.8781 1.18031 0 -52.3942 -2.38419e-05 -6.51903 22.6374 -2.77512e-06 0 -42.8066 -7.15256e-05 10.8928 -16.6806 8.71779 -7.35301 -7.23776 3.48721 -5.76791 -25.7137 -3.01041 -5.96046e-06 -50.8618 -4.76837e-05 -1.93463 14.5674 8.82132e-07 -5.96046e-06 -42.4657 7.15256e-05 3.59569 -16.7359 1.30554 0 5.13978 -5.13978 -0.480785 -22.4589 -1.36128 -5.96046e-06 36.6466 4.76837e-05 -37.5214 8.53773e-06 0.410041 21.7255 2.98023e-06 0 -35.8292 35.3967 0.612355 23.7538 0 1.19209e-05 4.09589e-05 -4.71437e-07 -95.4006 25.9566 3.57628e-05 8.9407e-06 10.7003 -0.43039 -12.4222 0.0062 0.0497 0.0339 -45 0 0 0 0.0215 0 0 -45 0 0 0.022 0 0 -45 0 0 0.017 0 0 0 0 -0.0068 0.0873 0.0207 -45 0 0 0 0.0267 0 -80 0 0 0 0.0213 0 -90 0 0 0 0.018 0 0 0 0 -0.0067 0.0922 0.0055 -45 0 0 0 0.0266 0 -80 0 0 0 0.0228 0 -90 0 0 0 0.015 0 0 0 0 -0.0067 0.0925 -0.0113 -45 0 0 0 0.0247 0 -80 0 0 0 0.0221 0 -90 0 0 0 0.018 0 0 0 0 -0.0066 0.0935 -0.0272 -45 0 0 0 0.0163 0 -80 0 0 0 0.0171 0 -90 0 0 0 0.018 0 0 0 0 -5.96046e-06 36.6466 4.76837e-05 32.5886 -6.18986e-06 -0.408524 -21.8065 -5.96046e-06 -2.38419e-05 43.0899 29.5671 -3.59176 -20.7758 -1.49012e-05 0 6.40513e-07 1.19528e-05 83.8645 -26.2947 8.9407e-06 0 1.22411 -0.100769 -3.11504 -0.0062 0.0497 0.0339 45 0 0 0 0.0215 0 0 -45 0 0 0.022 0 0 -45 0 0 0.017 0 0 0 0 0.0068 0.0873 0.0207 45 0 0 0 0.0267 0 80 0 0 0 0.0213 0 90 0 0 0 0.018 0 0 0 0 0.0067 0.0922 0.0055 45 0 0 0 0.0266 0 80 0 0 0 0.0228 0 90 0 0 0 0.015 0 0 0 0 0.0067 0.0925 -0.0113 45 0 0 0 0.0247 0 80 0 0 0 0.0221 0 90 0 0 0 0.018 0 0 0 0 0.0066 0.0935 -0.0272 45 0 0 0 0.0163 0 80 0 0 0 0.0171 0 90 0 0 0 0.018 0 0 0 0 -5.96046e-06 36.6466 4.76837e-05 1.84176 13.0053 -0.414611 -5.96046e-06 16.2942 -4.76837e-05 1.04587e-05 -1.02453e-05 8.53774e-07 
-17.5267 30.9738 -236.649 8.59766 26.0175 -9.71642 7.32892 -6.91671 4.12273 5.29286 -32.248 1.36623 1.19209e-05 -52.3306 9.53674e-05 -7.23226 22.7771 3.70394e-06 -2.98023e-06 -43.0087 -2.38419e-05 7.74748 -16.5565 6.45111 -7.33348 -7.15197 3.5358 -5.57857 -26.3552 -3.07092 5.96046e-06 -50.9395 4.76837e-05 -2.72451 14.0462 -2.64026e-06 0 -42.2857 -4.76837e-05 6.59084 -16.5687 3.87986 0 5.13923 -5.13926 -0.546416 -23.2443 -1.38419 5.96046e-06 36.6466 0 -37.5266 1.53679e-05 0.552785 21.5866 8.9407e-06 -4.76837e-05 -35.5812 34.3047 0.998011 23.7876 7.15256e-05 3.57628e-05 4.04769e-05 -1.02425e-05 -95.6371 24.8135 1.19209e-05 -2.98023e-06 5.86325 -0.0933209 -12.5014 0.0062 0.0497 0.0339 -45 0 0 0 0.0215 0 0 -45 0 0 0.022 0 0 -45 0 0 0.017 0 0 0 0 -0.0068 0.0873 0.0207 -45 0 0 0 0.0267 0 -80 0 0 0 0.0213 0 -90 0 0 0 0.018 0 0 0 0 -0.0067 0.0922 0.0055 -45 0 0 0 0.0266 0 -80 0 0 0 0.0228 0 -90 0 0 0 0.015 0 0 0 0 -0.0067 0.0925 -0.0113 -45 0 0 0 0.0247 0 -80 0 0 0 0.0221 0 -90 0 0 0 0.018 0 0 0 0 -0.0066 0.0935 -0.0272 -45 0 0 0 0.0163 0 -80 0 0 0 0.0171 0 -90 0 0 0 0.018 0 0 0 0 5.96046e-06 36.6466 0 32.4247 -2.56132e-06 -0.549324 -21.7229 2.38419e-05 0 43.4554 28.853 -3.31038 -20.5656 -1.78814e-05 0 -6.7779e-05 1.02453e-05 82.8318 -26.1005 -8.9407e-06 5.96046e-06 1.13288 -0.0696614 -2.6234 -0.0062 0.0497 0.0339 45 0 0 0 0.0215 0 0 -45 0 0 0.022 0 0 -45 0 0 0.017 0 0 0 0 0.0068 0.0873 0.0207 45 0 0 0 0.0267 0 80 0 0 0 0.0213 0 90 0 0 0 0.018 0 0 0 0 0.0067 0.0922 0.0055 45 0 0 0 0.0266 0 80 0 0 0 0.0228 0 90 0 0 0 0.015 0 0 0 0 0.0067 0.0925 -0.0113 45 0 0 0 0.0247 0 80 0 0 0 0.0221 0 90 0 0 0 0.018 0 0 0 0 0.0066 0.0935 -0.0272 45 0 0 0 0.0163 0 80 0 0 0 0.0171 0 90 0 0 0 0.018 0 0 0 0 5.96046e-06 36.6466 0 1.23627 12.9889 -0.277907 0 16.3623 2.38419e-05 1.02453e-05 -1.36604e-05 4.26887e-06 
